<?xml version="1.0" encoding="utf-8"?>
<!-- Generator: Adobe Illustrator 25.2.0, SVG Export Plug-In . SVG Version: 6.00 Build 0)  -->
<svg version="1.1" id="Calque_1" xmlns="http://www.w3.org/2000/svg" xmlns:xlink="http://www.w3.org/1999/xlink" x="0px" y="0px"
	 viewBox="0 0 149.1 115.1" style="enable-background:new 0 0 149.1 115.1;" xml:space="preserve">
<style type="text/css">
	.st0{fill:#FFFFFF;}
</style>
<path class="st0" d="M142.9,52.1c0.6-2.9,0.4-6-0.5-8.8c-0.9-2.7-2.4-5.2-4.4-7.2c-0.7-4.8-3.2-9.1-7-12l-0.5-0.4
	c-0.7-6.8-5.2-12.6-11.5-14.9c-4.9-1.9-10.4-2-15.4-0.3c-3.2-5.3-8.9-8.5-15-8.4c-4.9,0-9.5,2-12.9,5.4C72.6,3.2,68.8,1.9,65,1.9
	c-3.4,0-6.7,1-9.5,2.8c-3.3,2.1-5.8,5.2-7.1,8.9c-3.5-1.3-7.4-1.5-11-0.5c-4,1.1-7.5,3.6-9.9,7.1c-2.8-0.1-5.7,0.1-8.4,0.8
	c-4.7,1-8.8,4-11.3,8.1c-4.4,7.2-3.1,16.4,3,22.2L8.2,53c-2.2,1.6-4,3.6-5.3,6c-1.2,1.8-2,3.7-2.5,5.8c-0.1,0.5-0.2,1-0.2,1.4
	l-0.1,0.5C0,67.5,0,68.2,0,68.8c0,2.7,0.6,5.3,1.8,7.7c1.7,3.7,3.9,7.1,6.7,10.1c1.7,1.8,3.9,3.3,6.2,4.2c1.6,2.4,3.8,4.3,6.3,5.7
	c2.2,1.2,4.7,1.9,7.2,2c1,0.6,2.1,1.2,3.2,1.6c2.4,2.5,5.3,4.5,8.5,5.9c1.1,0.5,2.3,0.8,3.5,1.1c3.3,2.9,7.5,4.5,11.8,4.5
	c3.3,0,6.6-0.9,9.4-2.7c0.9-0.5,2.1-1.2,3.3-1.9l1.2-0.7c4.5,7.6,13.9,10.7,22,7.3c4.6,1,9.3,0.2,13.3-2.4c4.1-0.3,8-2,10.9-4.9
	l3.7-3.6c3-3.6,6.4-7,10.1-9.9c5.7-3.4,11.1-7.2,16.1-11.5C151.2,72.3,150.2,60.3,142.9,52.1z M133.2,85.3l-0.4,0.4
	c-1.6,1.7-3.6,2.9-5.8,3.6l-0.8,0.3l-0.4,0.8c-1.5,3-3.9,5.3-7,6.6l-0.5,0.2l-0.3,0.5c-0.5,0.8-1.2,1.5-1.8,2.2l-3.7,3.6
	c-2.4,2.3-5.6,3.6-8.9,3.8H103l-0.5,0.3c-3.2,2.2-7.3,2.9-11.1,1.9l-0.7-0.2l-0.7,0.3c-1.8,0.9-3.8,1.3-5.8,1.3
	c-5.4,0-10.3-3.3-12.5-8.2l-0.9-2.1l-2,1.2c-1.1,0.6-2.1,1.1-3,1.6c-1.3,0.7-2.5,1.4-3.5,2c-5.3,3.3-12.1,2.6-16.6-1.7l-0.4-0.4
	l-0.5-0.1c-1.1-0.2-2.2-0.6-3.3-1c-2.8-1.3-5.4-3.1-7.5-5.3l-0.3-0.3l-0.5-0.2C32.1,96,31,95.5,30,94.8l-0.5-0.4h-0.6
	c-2.1-0.1-4.2-0.6-6.1-1.6c-2.1-1.1-3.9-2.8-5.1-4.8l-0.4-0.6l-0.7-0.2c-2-0.7-3.8-1.9-5.3-3.4c-2.5-2.6-4.5-5.7-6-9
	c-0.9-1.9-1.4-3.9-1.4-6c0-0.5,0-1,0.1-1.5l0.1-0.5c0-0.3,0.1-0.7,0.2-1.1c0.4-1.6,1-3.1,1.9-4.5L6.5,61c1-1.9,2.4-3.5,4.1-4.7
	l7.1-5.2l-2.4-1.6c-6.1-4-7.9-12.2-4.1-18.4c1.9-3.2,5-5.4,8.6-6.2c2.7-0.6,5.5-0.8,8.3-0.6l1.5,0.1l0.7-1.1c3.5-6,11-8.4,17.4-5.5
	c0.2,0.1,0.5,0.2,0.8,0.4l2.7,1.3l0.5-2.5c0.8-3.6,2.9-6.7,6-8.7C59.8,6.8,62.4,6,65,6c3.5,0,6.9,1.4,9.5,3.8l1.7,1.6l1.4-1.8
	c2.6-3.5,6.7-5.5,11.1-5.5c5.2,0,10,3,12.2,7.7l0.8,1.7l1.8-0.7c4.5-1.8,9.6-1.9,14.2-0.3c5.2,1.9,8.8,6.8,9,12.4l0,1.1l0.9,0.6
	c0.4,0.2,0.8,0.5,1.1,0.8c3.1,2.4,5.1,6,5.5,9.9l0.1,0.8l0.6,0.5c1.8,1.6,3.1,3.7,3.9,6c0.8,2.5,0.8,5.1,0.1,7.6l-0.3,1.1l0.8,0.8
	c6.6,6.7,7.7,17.1,2.6,25.1c-1.8,2.9-4.7,5-8,5.9L133.2,85.3z"/>
<path class="st0" d="M82,44.3c-5.2-1.7-10.8-1.2-15.6,1.2c-2.7,1.3-4.2,4.4-3.6,7.4c0.2,0.8,0.4,1.6,0.8,2.3
	c-1.5,0.2-2.7,2.1-1.2,3.4c3.9,3.6,9.2,5.3,14.5,4.7c4.7-0.6,10.1-3.3,12.6-7.6C92.4,50.8,86.1,45.9,82,44.3z M85.7,54.2
	c-2.2,2.8-5.4,4.6-8.9,5.2c-2,0.3-4,0.2-5.9-0.4c0.7-0.8,0.5-2-0.3-2.7c-0.1-0.1-0.2-0.1-0.3-0.2c-1.4-0.8-3-1.9-3.4-3.6
	s0.4-2.8,1.9-3.5c3.5-1.6,7.5-2,11.2-1c1.6,0.5,3,1.3,4.2,2.4C85.2,51.3,86.6,52.8,85.7,54.2z"/>
<path class="st0" d="M112.6,61c0.2-0.2,0.3-0.4,0.4-0.6c1,0.2,2-0.4,2.2-1.4c0.1-0.3,0-0.7-0.1-1c-2-5.3-4.2-10.9-8.7-14.6
	c-4.9-4-11.6-5.5-17.7-6.5c-6.7-1.1-13.4-1.3-20.1-0.4c-6.3,0.8-12.8,2.3-18.5,5.3c-5.9,3.1-10.5,8.2-12.9,14.4
	c0.7,1.3,1,2.8,0.8,4.2c6.5,8.6,16.5,12.8,27,14.1c11.1,1.5,23,0.6,33.5-3.8C103.7,68.3,108.6,65.1,112.6,61z M41.4,58.1
	c-0.2-0.2-0.4-0.4-0.6-0.5c0.1-0.2,0.2-0.3,0.3-0.5c4.3-10.8,15.5-14.7,26.2-16.4c5.9-0.9,11.9-1,17.8-0.3
	c5.5,0.6,11.6,1.8,16.5,4.6s7.1,7.7,9.1,12.6c-0.3,0.1-0.6,0.3-0.8,0.5c-9,9.2-21.8,12.7-34.4,12.8C63.2,71,49.2,68.5,41.4,58.1
	L41.4,58.1z"/>
<path class="st0" d="M23.6,40.2l0.9-0.2h0.2c0.1,0,0.3,0,0.4,0c0.6,0,1.3,0,1.9,0c0.3,0,0.6,0,0.9,0h0.5c0,0,0.1,0,0.1,0
	c0.6,0.1,1.2,0.2,1.9,0.4c2.2,0.6,4.2,1.8,5.9,3.3c0.8,0.8,2.1,0.8,2.9,0s0.8-2.1,0-2.9c-4.4-4.2-10.6-5.9-16.5-4.6
	c-1.1,0.3-1.7,1.4-1.4,2.5C21.3,39.8,22.5,40.5,23.6,40.2z"/>
<path class="st0" d="M41,32c1.5,0.6,2.9,1.4,4.2,2.4c0,0,0.1,0.1,0.1,0.1c0,0,0,0,0,0c0.1,0,0.1,0.1,0.1,0.1
	c0.2,0.1,0.3,0.3,0.5,0.4l0.9,0.9c0.6,0.6,1.2,1.2,1.7,1.9c0.4,0.4,0.9,0.6,1.4,0.6c1.1,0,2-0.9,2.1-2c0-0.5-0.3-1.1-0.6-1.5
	c-2.2-2.8-5.1-5-8.4-6.5c-0.5-0.2-1-0.3-1.6-0.2c-0.5,0.1-0.9,0.5-1.2,0.9C39.8,30.2,40.1,31.4,41,32z"/>
<path class="st0" d="M65.1,26l0.2,0.7c0,0.1,0,0.3,0,0.4c0,0,0,0.1,0,0.1c0,0,0,0,0,0.1v0.1c0,0.1,0,0.3,0,0.4s0,0.5,0.1,0.7
	c0,1,0,2-0.1,3c0.1,1.1,1.1,2,2.2,1.9c1-0.1,1.8-0.9,1.9-1.9c0.4-4.5-0.6-8.9-2.8-12.9c-0.5-1-1.8-1.3-2.7-0.8c0,0-0.1,0-0.1,0
	c-1,0.6-1.3,1.8-0.8,2.8C64,22.3,64.7,24.1,65.1,26z"/>
<path class="st0" d="M85.9,31.6c1.1,0.3,2.2-0.4,2.5-1.4c0.7-4,1.4-7.9,2.1-11.9c0.3-1.1-0.4-2.2-1.4-2.5c-1.1-0.3-2.2,0.4-2.5,1.4
	c-0.7,4-1.4,7.9-2.1,11.9C84.1,30.1,84.8,31.2,85.9,31.6z"/>
<path class="st0" d="M99.4,33.3c2.3-1.5,4.6-3,6.9-4.4c0.9-0.6,1.9-1.2,3-1.6c1-0.4,2-0.4,3,0c1.1,0.3,2.2-0.3,2.5-1.4
	c0.3-1.1-0.4-2.2-1.4-2.5c-2.9-1.1-6,0-8.5,1.6s-5.1,3.2-7.6,4.8c-1,0.6-1.3,1.8-0.7,2.8C97.1,33.6,98.4,33.9,99.4,33.3L99.4,33.3
	L99.4,33.3z"/>
<path class="st0" d="M109.2,40c0.3,1.1,1.4,1.7,2.5,1.4c1.7-0.4,3.4-0.9,5.1-1.3c0.3-0.1,0.7-0.2,1-0.2h0.1c0,0,0.1,0,0.1,0
	c0,0,0.1,0,0.1,0h0.7c0,0,0.1,0,0.1,0c0,0,0.1,0.1,0.2,0l0,0l0.3,0.2c0.9,0.6,2.2,0.3,2.7-0.7c0,0,0,0,0-0.1c0.5-1,0.2-2.2-0.7-2.8
	c-1.5-1.2-3.6-1-5.4-0.5s-3.7,1-5.5,1.4C109.6,37.9,109,38.9,109.2,40z"/>
<path class="st0" d="M118.4,49.5c-0.6,0.9-0.4,2.2,0.6,2.8c0.5,0.3,1.2,0.4,1.7,0.2l5.4-1.8c1.1-0.3,1.7-1.3,1.5-2.4
	c0,0,0-0.1,0-0.1c-0.3-1.1-1.4-1.7-2.5-1.4l-5.4,1.9C119.1,48.7,118.6,49,118.4,49.5z"/>
<path class="st0" d="M71.1,80.5c-1-0.6-2.2-0.2-2.8,0.7c-0.6,1.5-1.5,2.8-2.7,3.9c-0.2-1.3-0.3-2.6-0.5-3.8c-0.1-0.5-0.5-1-0.9-1.2
	c-0.9-0.6-2.2-0.3-2.7,0.7c0,0,0,0.1,0,0.1c-0.1,0.2-0.2,0.3-0.2,0.5c-0.1,0.4-0.1,0.7,0,1.1c0.2,1.7,0.5,3.4,0.8,5.1
	c0,0.1,0.1,0.2,0.1,0.3c-2.5,1.6-5.2,2.8-7.8,4.4c-1,0.6-1.3,1.8-0.7,2.8c0.6,1,1.8,1.3,2.8,0.7c5.6-3.5,12.8-5.9,15.6-12.4
	C72.4,82.3,72,81,71.1,80.5z"/>
<path class="st0" d="M96,94.6l-3.7-2.3L91.8,92c0.3-0.3,0.5-0.6,0.7-1c0.3-0.9,0.4-1.9,0.2-2.8c-0.1-0.9-0.2-1.9-0.4-2.8
	c-0.7-3.3-3.2-6.7-7-6.5c-0.8,0-1.6,0.5-1.9,1.3c-0.9,0.2-1.6,1-1.6,2c0.1,5.1,0.3,10.1,0.4,15.2c0.1,1.1,1.1,2,2.2,1.9
	c1-0.1,1.8-0.9,1.9-1.9c0-1.4-0.1-2.8-0.1-4.1c0.4,0.4,0.8,0.7,1.3,1l6.4,3.9C96.2,99.6,98.2,96,96,94.6z M88.7,88.8
	c-0.1,0-0.2,0-0.3,0c-0.9,0-1.7,0.3-2.3,0.9C86.1,87.5,86,85.2,86,83c0.4,0.1,0.8,0.3,1.1,0.6c0.6,0.6,1,1.3,1.2,2.1
	C88.5,86.7,88.6,87.7,88.7,88.8C88.7,88.8,88.7,88.8,88.7,88.8L88.7,88.8z"/>
<path class="st0" d="M105.2,88.7c-0.5,0.6-1.1,1.1-1.7,1.6l-2.3-4.6c0.2-0.1,0.4-0.3,0.6-0.4c0.9-0.7,1.7-1.4,2.4-2.3
	c0.2-0.2,0.3-0.4,0.4-0.7c0.1-0.3,0.2-0.5,0.2-0.8c0-1.1-0.9-2-2-2c-0.5,0-1.1,0.2-1.5,0.6c-0.5,0.6-1.1,1.2-1.7,1.7
	c-0.1,0.1-0.2,0.2-0.4,0.3c-0.4-0.8-0.8-1.7-1.3-2.5c1.5-0.9,3-1.7,4.5-2.6c1-0.6,1.3-1.8,0.8-2.8c-0.6-1-1.8-1.3-2.8-0.8
	c-1.8,1.1-3.7,2.1-5.5,3.2c-0.1,0-0.1,0.1-0.2,0.2c-0.2,0.1-0.3,0.1-0.5,0.2c-1,0.6-1.3,1.8-0.7,2.8c0.9,1.8,1.8,3.5,2.7,5.3
	c0,0.2,0,0.3,0.1,0.5c0.1,0.4,0.4,0.8,0.7,1.1c1.4,2.8,2.8,5.5,4.1,8.2c0.6,1,1.8,1.3,2.8,0.7c0.1-0.1,0.3-0.2,0.4-0.3l3.8-3.6
	C110,89.7,107.1,86.8,105.2,88.7z"/>
<path class="st0" d="M122.8,74.3C122.8,74.3,122.8,74.3,122.8,74.3L122.8,74.3c-0.1-0.1-0.1-0.1-0.2-0.2l-0.6-0.5
	c-0.6-0.4-1.2-0.6-1.9-0.8c-1.1-0.3-2.2-0.4-3.2-0.6c-2.2-0.5-4.3-1.5-6.1-2.8c-1-0.6-2.2-0.2-2.8,0.7c-0.1,0.2-0.2,0.4-0.2,0.6
	c-0.5-0.2-1.1-0.1-1.5,0.2c-1,0.6-1.3,1.8-0.7,2.8l3.5,6c0.5,0.9,1.1,1.8,1.6,2.8c0.2,0.4,0.4,0.8,0.6,1.2c0,0,0.2,0.5,0.2,0.5
	c0.1,0.3,0.2,0.5,0.2,0.8c0.3,1.1,1.5,1.8,2.6,1.4s1.8-1.5,1.4-2.6l0,0c-0.2-0.7-0.4-1.3-0.7-1.9c0.3-0.1,0.5-0.4,0.7-0.7
	c0.4-0.8,0.8-1.5,1.3-2.1c0.6-0.7,1-1.6,1.2-2.5c0.5,0.1,1,0.2,1.4,0.3c0,0,0.1,0,0.1,0l0,0c0,0,0.1,0.1,0.1,0.1l0.1,0.1
	c0.3,0.2,0.6,0.5,1,0.8c0.8,0.5,1.8,0.6,2.7,0.4c1.1-0.2,1.8-1.3,1.6-2.4S124,74.1,122.8,74.3L122.8,74.3z M112.7,77.8
	c-0.7-1.3-1.5-2.5-2.2-3.7c1.2,0.6,2.4,1.2,3.7,1.6c0,0.1,0,0.1-0.1,0.2c-0.4,0.7-0.8,1.4-1.3,2.1C112.7,77.9,112.7,77.9,112.7,77.8
	L112.7,77.8z"/>
<path class="st0" d="M124.5,59.8c-2.2,0.1-4.4,0.6-6.5,1.5c-1.1,0.3-1.7,1.5-1.4,2.5c0.1,0.1,0.1,0.3,0.2,0.4
	c-0.4,0.8-0.3,1.7,0.3,2.3c2.2,2.3,4.6,4.3,7.3,6.1c1,0.6,2.2,0.2,2.8-0.7c0.6-1,0.2-2.2-0.7-2.8c-0.6-0.4-1.2-0.8-1.8-1.3
	c-0.1-0.1-0.2-0.2-0.3-0.2l0,0l-0.2-0.1l-0.1-0.1l-0.8-0.7c-0.8-0.7-1.5-1.3-2.3-2.1c0.2-0.1,0.4-0.1,0.7-0.2
	c0.4-0.1,0.8-0.2,1.2-0.3c0.2-0.1,0.4-0.1,0.6-0.1l0,0h0.4c0.4,0,0.8,0,1.2,0c0.1,0,0.2,0,0.2,0c0.2,0,0.4,0.1,0.7,0.2
	c0.2,0,0.3,0.1,0.5,0.2c0.1,0,0.2,0.1,0.3,0.1c0.3,0.2,0.5,0.3,0.8,0.5l0,0l0,0l0,0c0,0,0,0,0.1,0.1c0.1,0.1,0.3,0.2,0.4,0.4
	c0.1,0.1,0.2,0.2,0.3,0.3v0.1c0,0,0.1,0.1,0.1,0.1c0.2,0.2,0.3,0.5,0.4,0.7l0,0l0,0c0,0.1,0,0.2,0.1,0.3c0.1,0.2,0.1,0.4,0.2,0.6
	c0,0,0,0.2,0,0.3c0,0.2,0,0.3,0,0.5v0.6c0,0,0,0,0,0.2c-0.1,0.4-0.2,0.7-0.3,1.1l0,0c0,0-0.1,0.3-0.2,0.3l-0.3,0.5
	c-0.6,1-0.2,2.2,0.7,2.8c1,0.6,2.2,0.2,2.8-0.7l0,0c2.3-3.6,1.6-8.4-1.7-11.2C128.7,60.4,126.6,59.7,124.5,59.8z"/>
<path class="st0" d="M52.9,83.5c-0.1-0.4-0.2-0.8-0.3-1.3V82v-0.1c0-0.2,0-0.5,0-0.7c0-0.1,0-0.2,0-0.2l0,0c0-0.1,0-0.1,0-0.2
	c0,0,0-0.1,0-0.2s0,0,0,0l0,0l0,0l0,0c0-0.1,0.1-0.1,0.1-0.2l0,0c0,0,0.1-0.1,0.1-0.1c0,0,0.1-0.1,0.1-0.1l0,0l0,0l0,0
	c0,0,0.1,0,0.1,0l0,0l0,0c0,0,0.1,0.1,0.1,0.1c0.9,0.6,2.2,0.3,2.8-0.6c0,0,0-0.1,0-0.1c0.7-0.9,0.6-2.2-0.3-2.9
	c0,0-0.1-0.1-0.1-0.1c-1.7-1.1-3.9-0.8-5.4,0.6c-1.3,1.4-1.9,3.3-1.6,5.2c0.1,1,0.3,2,0.6,3c0.1,0.4,0.2,0.8,0.3,1.2v0.3
	c0,0.2,0,0.3,0,0.5l0,0c0,0-0.1,0.2-0.1,0.2l0,0l0,0l0,0c0,0,0,0,0,0l0,0l0,0l0,0l0,0c0,0,0,0,0,0l0,0l0,0h-0.1l0,0l0,0h0
	c-0.1,0-0.3,0-0.4,0.1h-0.5c-0.1,0-0.2,0-0.3-0.1c-0.1,0-0.1-0.1-0.2-0.1c-0.2-0.1-0.4-0.2-0.6-0.3c-0.1-0.1-0.3-0.2-0.4-0.3
	c-0.7-0.6-1.4-1.2-1.9-1.9c-0.8-0.8-2.1-0.8-2.9,0c0,0,0,0,0,0c-0.8,0.8-0.8,2.1,0,2.9c1.2,1.4,2.6,2.6,4.3,3.3
	c1.7,0.7,3.6,0.7,5.2-0.2c1.7-1,2.7-3,2.4-5C53.6,85.2,53.3,84.3,52.9,83.5z"/>
<path class="st0" d="M44.6,73.1c0-1.7-1.4-3-3.1-2.9c-0.1,0-0.1,0-0.2,0c-1.1,0.1-2.2,0.4-3.3,0.8c-2.1,0.8-4,1.9-5.8,3.3
	c-1.9,1.5-3.5,3.4-4.7,5.5c-0.6,1-0.2,2.2,0.7,2.8c1,0.6,2.2,0.2,2.8-0.7c0.2-0.3,0.4-0.7,0.6-1c0.1-0.2,0.2-0.3,0.3-0.5l0.2-0.2
	c0,0,0-0.1,0.1-0.1c0.4-0.5,0.9-1.1,1.4-1.6c0,0,0,0.1,0.1,0.1c0.2,0.3,0.4,0.6,0.7,0.7c0.7,0.3,1.3,0.7,1.9,1.1
	c0.2,0.1,0.5,0.2,0.8,0.2c0.3,0.1,0.5,0.1,0.8,0l0,0c-0.1,0.2-0.3,0.4-0.5,0.5c-0.3,0.4-0.7,0.7-1.1,1.1c-0.8,0.8-0.8,2-0.1,2.8
	c0,0,0,0,0.1,0.1c0.8,0.8,2.1,0.8,2.9,0c1.7-1.4,3-3.2,3.9-5.3C44.3,77.7,44.8,75.4,44.6,73.1z M40.5,75L40.5,75l-0.1,0.4
	c-0.2,0.9-0.4,1.7-0.8,2.5c0,0.1-0.1,0.2-0.1,0.2c0,0,0-0.1,0-0.2c-0.1-0.2-0.1-0.3-0.2-0.5c-0.2-0.3-0.4-0.6-0.7-0.7l-1.5-0.8
	l0.9-0.5l0.5-0.3h0.1l0,0c0,0,0.1,0,0.1,0c0.4-0.2,0.8-0.3,1.2-0.4l0.5-0.2C40.5,74.7,40.5,74.8,40.5,75z"/>
<path class="st0" d="M29.3,71.7c0.5-0.3,0.8-0.7,0.9-1.2c0.1-0.5,0.1-1.1-0.2-1.6c-0.9-1.8-2.3-3.2-4-4.3l1.6-1.2
	c0.7-0.5,1.3-0.9,1.9-1.4c0.8,1.4,1.5,2.7,2.3,4.1c0.6,1,1.8,1.3,2.8,0.7s1.3-1.8,0.7-2.8c-0.9-1.7-1.7-3.5-2.8-5
	c-0.6-1-1.7-1.6-2.8-1.5c-1,0.1-2,0.6-2.8,1.3c-3.2,2.3-6.4,4.6-9.5,6.9c-0.5,0.3-0.9,0.9-1,1.5c-0.4,0.2-0.6,0.6-0.7,1
	c0,0.2,0,0.4-0.1,0.5c0,0.4,0.1,0.7,0.3,1c1,2.2,2.3,4.3,4,6c0.8,0.8,2.1,0.8,2.9,0c0.8-0.8,0.8-2.1,0-2.9c-0.4-0.4-0.8-0.9-1.2-1.4
	c-0.6-0.9-1.2-1.8-1.7-2.7l0,0l2.8-2c0.2,0.5,0.5,0.9,0.9,1.1c0.2,0.1,0.4,0.3,0.6,0.4c0.5,0.4,1,0.9,1.4,1.4l0.2,0.2
	c0.2,0.3,0.4,0.6,0.5,0.9c0.3,0.5,0.7,0.8,1.2,0.9C28.2,72,28.8,71.9,29.3,71.7z"/>
</svg>
